<?xml version="1.0" encoding="UTF-8" standalone="no"?><!DOCTYPE svg PUBLIC "-//W3C//DTD SVG 1.1//EN" "http://www.w3.org/Graphics/SVG/1.1/DTD/svg11.dtd"><svg width="100%" height="100%" viewBox="0 0 179 105" version="1.1" xmlns="http://www.w3.org/2000/svg" xmlns:xlink="http://www.w3.org/1999/xlink" xml:space="preserve" xmlns:serif="http://www.serif.com/" style="fill-rule:evenodd;clip-rule:evenodd;stroke-linejoin:round;stroke-miterlimit:2;"><g><path d="M124.52,20.62c1.4,-2 1.2,-2.9 1.2,-2.9c0,0 0.2,-0.9 -1.2,-2.9c-1.4,-2 -15,-13.6 -15.7,-14c-0.7,-0.4 -28.5,-2.2 -31.4,1.3c-2.9,3.5 -2.6,15.6 -2.6,15.6c0,0 -0.3,12.1 2.6,15.6c2.9,3.5 30.7,1.7 31.4,1.3c0.7,-0.4 14.3,-12 15.7,-14Z" style="fill:#520000;fill-rule:nonzero;stroke:#2e0000;stroke-width:1px;"/><path d="M124.52,20.62c1.4,-2 1.2,-2.9 1.2,-2.9c0,0 0.2,-0.9 -1.2,-2.9c-0.9,-1.3 -6.9,-6.6 -11.2,-10.3c-2.209,4.05 -3.378,8.587 -3.4,13.2c-0.026,4.62 1.145,9.168 3.4,13.2c4.3,-3.7 10.3,-9 11.2,-10.3Z" style="fill-opacity:0.25;fill-rule:nonzero;"/></g><g><path d="M20.62,1.32c-2,-1.4 -2.9,-1.2 -2.9,-1.2c0,0 -0.9,-0.2 -2.9,1.2c-2,1.4 -13.6,15 -14,15.7c-0.4,0.7 -2.2,28.5 1.3,31.4c3.5,2.9 15.6,2.6 15.6,2.6c0,0 12.1,0.3 15.6,-2.6c3.5,-2.9 1.7,-30.7 1.3,-31.4c-0.4,-0.7 -12,-14.4 -14,-15.7Z" style="fill:#520000;fill-rule:nonzero;stroke:#2e0000;stroke-width:1px;"/><path d="M20.62,1.32c-2,-1.4 -2.9,-1.2 -2.9,-1.2c0,0 -0.9,-0.2 -2.9,1.2c-1.3,0.9 -6.6,6.9 -10.3,11.2c4.05,2.209 8.587,3.378 13.2,3.4c4.62,0.026 9.168,-1.145 13.2,-3.4c-3.7,-4.4 -9,-10.4 -10.3,-11.2Z" style="fill-opacity:0.25;fill-rule:nonzero;"/></g><g><path d="M52.22,49.82c2,1.4 2.9,1.2 2.9,1.2c0,0 0.9,0.2 2.9,-1.2c2,-1.4 13.6,-15 14,-15.7c0.4,-0.7 2.2,-28.5 -1.3,-31.4c-3.5,-2.9 -15.6,-2.6 -15.6,-2.6c0,0 -12.1,-0.3 -15.6,2.6c-3.5,2.9 -1.7,30.7 -1.3,31.4c0.4,0.7 12,14.3 14,15.7Z" style="fill:#520000;fill-rule:nonzero;stroke:#2e0000;stroke-width:1px;"/><path d="M52.22,49.82c2,1.4 2.9,1.2 2.9,1.2c0,0 0.9,0.2 2.9,-1.2c1.3,-0.9 6.6,-6.9 10.3,-11.2c-4.05,-2.209 -8.587,-3.378 -13.2,-3.4c-4.62,-0.026 -9.168,1.145 -13.2,3.4c3.7,4.3 9,10.3 10.3,11.2Z" style="fill-opacity:0.25;fill-rule:nonzero;"/></g><g><path d="M175.92,2.32c-2.9,-3.5 -30.7,-1.7 -31.4,-1.3c-0.7,0.4 -14.3,12 -15.7,14c-1.4,2 -1.2,2.9 -1.2,2.9c0,0 -0.2,0.9 1.2,2.9c1.4,2 15,13.6 15.7,14c0.7,0.4 28.5,2.2 31.4,-1.3c2.9,-3.5 2.6,-15.6 2.6,-15.6c0,0 0.2,-12.1 -2.6,-15.6Z" style="fill:#520000;fill-rule:nonzero;stroke:#2e0000;stroke-width:1px;"/><path d="M140.02,4.72c-4.3,3.7 -10.3,9 -11.2,10.3c-1.4,2 -1.2,2.9 -1.2,2.9c0,0 -0.2,0.9 1.2,2.9c0.9,1.3 6.9,6.6 11.2,10.3c2.209,-4.05 3.378,-8.587 3.4,-13.2c-0.022,-4.613 -1.191,-9.15 -3.4,-13.2Z" style="fill-opacity:0.25;fill-rule:nonzero;"/></g><g><path d="M124.52,73.62c1.4,-2 1.2,-2.9 1.2,-2.9c0,0 0.2,-0.9 -1.2,-2.9c-1.4,-2 -15,-13.6 -15.7,-14c-0.7,-0.4 -28.5,-2.2 -31.4,1.3c-2.9,3.5 -2.6,15.6 -2.6,15.6c0,0 -0.3,12.1 2.6,15.6c2.9,3.5 30.7,1.7 31.4,1.3c0.7,-0.4 14.3,-12 15.7,-14Z" style="fill:#a50000;fill-rule:nonzero;stroke:#5e0000;stroke-width:1px;"/><path d="M124.52,73.62c1.4,-2 1.2,-2.9 1.2,-2.9c0,0 0.2,-0.9 -1.2,-2.9c-0.9,-1.3 -6.9,-6.6 -11.2,-10.3c-2.209,4.05 -3.378,8.587 -3.4,13.2c-0.026,4.62 1.145,9.168 3.4,13.2c4.3,-3.7 10.3,-9 11.2,-10.3Z" style="fill:#fff;fill-opacity:0.25;fill-rule:nonzero;"/></g><g><path d="M20.62,54.32c-2,-1.4 -2.9,-1.2 -2.9,-1.2c0,0 -0.9,-0.2 -2.9,1.2c-2,1.4 -13.6,15 -14,15.7c-0.4,0.7 -2.2,28.5 1.3,31.4c3.5,2.9 15.6,2.6 15.6,2.6c0,0 12.1,0.3 15.6,-2.6c3.5,-2.9 1.7,-30.7 1.3,-31.4c-0.4,-0.7 -12,-14.4 -14,-15.7Z" style="fill:#a50000;fill-rule:nonzero;stroke:#5e0000;stroke-width:1px;"/><path d="M20.62,54.32c-2,-1.4 -2.9,-1.2 -2.9,-1.2c0,0 -0.9,-0.2 -2.9,1.2c-1.3,0.9 -6.6,6.9 -10.3,11.2c4.05,2.209 8.587,3.378 13.2,3.4c4.62,0.026 9.168,-1.145 13.2,-3.4c-3.7,-4.4 -9,-10.4 -10.3,-11.2Z" style="fill:#fff;fill-opacity:0.25;fill-rule:nonzero;"/></g><g><path d="M52.22,102.82c2,1.4 2.9,1.2 2.9,1.2c0,0 0.9,0.2 2.9,-1.2c2,-1.4 13.6,-15 14,-15.7c0.4,-0.7 2.2,-28.5 -1.3,-31.4c-3.5,-2.9 -15.6,-2.6 -15.6,-2.6c0,0 -12.1,-0.3 -15.6,2.6c-3.5,2.9 -1.7,30.7 -1.3,31.4c0.4,0.7 12,14.3 14,15.7Z" style="fill:#a50000;fill-rule:nonzero;stroke:#5e0000;stroke-width:1px;"/><path d="M52.22,102.82c2,1.4 2.9,1.2 2.9,1.2c0,0 0.9,0.2 2.9,-1.2c1.3,-0.9 6.6,-6.9 10.3,-11.2c-4.05,-2.209 -8.587,-3.378 -13.2,-3.4c-4.62,-0.026 -9.168,1.145 -13.2,3.4c3.7,4.3 9,10.3 10.3,11.2Z" style="fill:#fff;fill-opacity:0.25;fill-rule:nonzero;"/></g><g><path d="M175.92,55.22c-2.9,-3.5 -30.7,-1.7 -31.4,-1.3c-0.7,0.4 -14.3,12 -15.7,14c-1.4,2 -1.2,2.9 -1.2,2.9c0,0 -0.2,0.9 1.2,2.9c1.4,2 15,13.6 15.7,14c0.7,0.4 28.5,2.2 31.4,-1.3c2.9,-3.5 2.6,-15.6 2.6,-15.6c0,0 0.2,-12.1 -2.6,-15.6Z" style="fill:#a50000;fill-rule:nonzero;stroke:#5e0000;stroke-width:1px;"/><path d="M140.02,57.62c-4.3,3.7 -10.3,9 -11.2,10.3c-1.4,2 -1.2,2.9 -1.2,2.9c0,0 -0.2,0.9 1.2,2.9c0.9,1.3 6.9,6.6 11.2,10.3c4.529,-8.207 4.529,-18.193 0,-26.4Z" style="fill:#fff;fill-opacity:0.25;fill-rule:nonzero;"/></g></svg>