<?xml version="1.0" encoding="UTF-8" standalone="no"?>
<!DOCTYPE svg PUBLIC "-//W3C//DTD SVG 1.1//EN" "http://www.w3.org/Graphics/SVG/1.1/DTD/svg11.dtd">
<svg width="100%" height="100%" viewBox="0 0 179 105" version="1.1" xmlns="http://www.w3.org/2000/svg" xmlns:xlink="http://www.w3.org/1999/xlink" xml:space="preserve" xmlns:serif="http://www.serif.com/" style="fill-rule:evenodd;clip-rule:evenodd;stroke-linejoin:round;stroke-miterlimit:2;">
    <g>
        <path d="M124.52,20.62C125.92,18.62 125.72,17.72 125.72,17.72C125.72,17.72 125.92,16.82 124.52,14.82C123.12,12.82 109.52,1.22 108.82,0.82C108.12,0.42 80.32,-1.38 77.42,2.12C74.52,5.62 74.82,17.72 74.82,17.72C74.82,17.72 74.52,29.82 77.42,33.32C80.32,36.82 108.12,35.02 108.82,34.62C109.52,34.22 123.12,22.62 124.52,20.62Z" style="fill:rgb(82,0,0);fill-rule:nonzero;stroke:rgb(46,0,0);stroke-width:1px;"/>
        <path d="M124.52,20.62C125.92,18.62 125.72,17.72 125.72,17.72C125.72,17.72 125.92,16.82 124.52,14.82C123.62,13.52 117.62,8.22 113.32,4.52C111.111,8.57 109.942,13.107 109.92,17.72C109.894,22.34 111.065,26.888 113.32,30.92C117.62,27.22 123.62,21.92 124.52,20.62Z" style="fill-opacity:0.25;fill-rule:nonzero;"/>
    </g>
    <g>
        <path d="M20.62,1.32C18.62,-0.08 17.72,0.12 17.72,0.12C17.72,0.12 16.82,-0.08 14.82,1.32C12.82,2.72 1.22,16.32 0.82,17.02C0.42,17.72 -1.38,45.52 2.12,48.42C5.62,51.32 17.72,51.02 17.72,51.02C17.72,51.02 29.82,51.32 33.32,48.42C36.82,45.52 35.02,17.72 34.62,17.02C34.22,16.32 22.62,2.62 20.62,1.32Z" style="fill:rgb(82,0,0);fill-rule:nonzero;stroke:rgb(46,0,0);stroke-width:1px;"/>
        <path d="M20.62,1.32C18.62,-0.08 17.72,0.12 17.72,0.12C17.72,0.12 16.82,-0.08 14.82,1.32C13.52,2.22 8.22,8.22 4.52,12.52C8.57,14.729 13.107,15.898 17.72,15.92C22.34,15.946 26.888,14.775 30.92,12.52C27.22,8.12 21.92,2.12 20.62,1.32Z" style="fill-opacity:0.25;fill-rule:nonzero;"/>
    </g>
    <g>
        <path d="M52.22,49.82C54.22,51.22 55.12,51.02 55.12,51.02C55.12,51.02 56.02,51.22 58.02,49.82C60.02,48.42 71.62,34.82 72.02,34.12C72.42,33.42 74.22,5.62 70.72,2.72C67.22,-0.18 55.12,0.12 55.12,0.12C55.12,0.12 43.02,-0.18 39.52,2.72C36.02,5.62 37.82,33.42 38.22,34.12C38.62,34.82 50.22,48.42 52.22,49.82Z" style="fill:rgb(82,0,0);fill-rule:nonzero;stroke:rgb(46,0,0);stroke-width:1px;"/>
        <path d="M52.22,49.82C54.22,51.22 55.12,51.02 55.12,51.02C55.12,51.02 56.02,51.22 58.02,49.82C59.32,48.92 64.62,42.92 68.32,38.62C64.27,36.411 59.733,35.242 55.12,35.22C50.5,35.194 45.952,36.365 41.92,38.62C45.62,42.92 50.92,48.92 52.22,49.82Z" style="fill-opacity:0.25;fill-rule:nonzero;"/>
    </g>
    <g>
        <path d="M175.92,2.32C173.02,-1.18 145.22,0.62 144.52,1.02C143.82,1.42 130.22,13.02 128.82,15.02C127.42,17.02 127.62,17.92 127.62,17.92C127.62,17.92 127.42,18.82 128.82,20.82C130.22,22.82 143.82,34.42 144.52,34.82C145.22,35.22 173.02,37.02 175.92,33.52C178.82,30.02 178.52,17.92 178.52,17.92C178.52,17.92 178.72,5.82 175.92,2.32Z" style="fill:rgb(82,0,0);fill-rule:nonzero;stroke:rgb(46,0,0);stroke-width:1px;"/>
        <path d="M140.02,4.72C135.72,8.42 129.72,13.72 128.82,15.02C127.42,17.02 127.62,17.92 127.62,17.92C127.62,17.92 127.42,18.82 128.82,20.82C129.72,22.12 135.72,27.42 140.02,31.12C142.229,27.07 143.398,22.533 143.42,17.92C143.398,13.307 142.229,8.77 140.02,4.72Z" style="fill-opacity:0.25;fill-rule:nonzero;"/>
    </g>
    <g>
        <path d="M124.52,73.62C125.92,71.62 125.72,70.72 125.72,70.72C125.72,70.72 125.92,69.82 124.52,67.82C123.12,65.82 109.52,54.22 108.82,53.82C108.12,53.42 80.32,51.62 77.42,55.12C74.52,58.62 74.82,70.72 74.82,70.72C74.82,70.72 74.52,82.82 77.42,86.32C80.32,89.82 108.12,88.02 108.82,87.62C109.52,87.22 123.12,75.62 124.52,73.62Z" style="fill:white;fill-rule:nonzero;stroke:rgb(188,188,188);stroke-width:1px;"/>
        <path d="M124.52,73.62C125.92,71.62 125.72,70.72 125.72,70.72C125.72,70.72 125.92,69.82 124.52,67.82C123.62,66.52 117.62,61.22 113.32,57.52C111.111,61.57 109.942,66.107 109.92,70.72C109.894,75.34 111.065,79.888 113.32,83.92C117.62,80.22 123.62,74.92 124.52,73.62Z" style="fill:rgb(164,164,164);fill-opacity:0.25;fill-rule:nonzero;"/>
    </g>
    <g>
        <path d="M20.62,54.32C18.62,52.92 17.72,53.12 17.72,53.12C17.72,53.12 16.82,52.92 14.82,54.32C12.82,55.72 1.22,69.32 0.82,70.02C0.42,70.72 -1.38,98.52 2.12,101.42C5.62,104.32 17.72,104.02 17.72,104.02C17.72,104.02 29.82,104.32 33.32,101.42C36.82,98.52 35.02,70.72 34.62,70.02C34.22,69.32 22.62,55.62 20.62,54.32Z" style="fill:white;fill-rule:nonzero;stroke:rgb(188,188,188);stroke-width:1px;"/>
        <path d="M20.62,54.32C18.62,52.92 17.72,53.12 17.72,53.12C17.72,53.12 16.82,52.92 14.82,54.32C13.52,55.22 8.22,61.22 4.52,65.52C8.57,67.729 13.107,68.898 17.72,68.92C22.34,68.946 26.888,67.775 30.92,65.52C27.22,61.12 21.92,55.12 20.62,54.32Z" style="fill:rgb(164,164,164);fill-opacity:0.25;fill-rule:nonzero;"/>
    </g>
    <g>
        <path d="M52.22,102.82C54.22,104.22 55.12,104.02 55.12,104.02C55.12,104.02 56.02,104.22 58.02,102.82C60.02,101.42 71.62,87.82 72.02,87.12C72.42,86.42 74.22,58.62 70.72,55.72C67.22,52.82 55.12,53.12 55.12,53.12C55.12,53.12 43.02,52.82 39.52,55.72C36.02,58.62 37.82,86.42 38.22,87.12C38.62,87.82 50.22,101.42 52.22,102.82Z" style="fill:white;fill-rule:nonzero;stroke:rgb(188,188,188);stroke-width:1px;"/>
        <path d="M52.22,102.82C54.22,104.22 55.12,104.02 55.12,104.02C55.12,104.02 56.02,104.22 58.02,102.82C59.32,101.92 64.62,95.92 68.32,91.62C64.27,89.411 59.733,88.242 55.12,88.22C50.5,88.194 45.952,89.365 41.92,91.62C45.62,95.92 50.92,101.92 52.22,102.82Z" style="fill:rgb(164,164,164);fill-opacity:0.25;fill-rule:nonzero;"/>
    </g>
    <g>
        <path d="M175.92,55.22C173.02,51.72 145.22,53.52 144.52,53.92C143.82,54.32 130.22,65.92 128.82,67.92C127.42,69.92 127.62,70.82 127.62,70.82C127.62,70.82 127.42,71.72 128.82,73.72C130.22,75.72 143.82,87.32 144.52,87.72C145.22,88.12 173.02,89.92 175.92,86.42C178.82,82.92 178.52,70.82 178.52,70.82C178.52,70.82 178.72,58.72 175.92,55.22Z" style="fill:white;fill-rule:nonzero;stroke:rgb(188,188,188);stroke-width:1px;"/>
        <path d="M140.02,57.62C135.72,61.32 129.72,66.62 128.82,67.92C127.42,69.92 127.62,70.82 127.62,70.82C127.62,70.82 127.42,71.72 128.82,73.72C129.72,75.02 135.72,80.32 140.02,84.02C144.549,75.813 144.549,65.827 140.02,57.62Z" style="fill:rgb(164,164,164);fill-opacity:0.25;fill-rule:nonzero;"/>
    </g>
</svg>
