<?xml version="1.0" encoding="UTF-8" standalone="no"?><!DOCTYPE svg PUBLIC "-//W3C//DTD SVG 1.1//EN" "http://www.w3.org/Graphics/SVG/1.1/DTD/svg11.dtd"><svg width="100%" height="100%" viewBox="0 0 286 94" version="1.1" xmlns="http://www.w3.org/2000/svg" xmlns:xlink="http://www.w3.org/1999/xlink" xml:space="preserve" xmlns:serif="http://www.serif.com/" style="fill-rule:evenodd;clip-rule:evenodd;stroke-linejoin:round;stroke-miterlimit:2;"><g><g><g><path d="M47,92.5c-24.961,0 -45.5,-20.539 -45.5,-45.5c-0,-24.961 20.539,-45.5 45.5,-45.5c24.961,-0 45.5,20.539 45.5,45.5c-0.022,24.952 -20.548,45.478 -45.5,45.5Z" style="fill:#c1272d;fill-rule:nonzero;"/><path d="M47,3c24.138,-0 44,19.862 44,44c0,24.138 -19.862,44 -44,44c-24.138,0 -44,-19.862 -44,-44c-0,-24.138 19.862,-44 44,-44m0,-3c-25.783,0 -47,21.217 -47,47c0,25.783 21.217,47 47,47c25.783,0 47,-21.217 47,-47c0,-0.017 0,-0.033 0,-0.05c0,-25.756 -21.194,-46.95 -46.95,-46.95c-0.017,-0 -0.033,0 -0.05,0Z" style="fill:#cf2a32;fill-rule:nonzero;"/></g><circle cx="47" cy="47" r="27.3" style="fill:#e02d39;"/></g><g><g><path d="M143,92.5c-24.961,0 -45.5,-20.539 -45.5,-45.5c0,-24.961 20.539,-45.5 45.5,-45.5c24.961,-0 45.5,20.539 45.5,45.5c-0.022,24.952 -20.548,45.478 -45.5,45.5Z" style="fill:#a10000;fill-rule:nonzero;"/><path d="M143,3c24.138,-0 44,19.862 44,44c0,24.138 -19.862,44 -44,44c-24.138,0 -44,-19.862 -44,-44c0,-24.138 19.862,-44 44,-44m0,-3c-25.783,0 -47,21.217 -47,47c0,25.783 21.217,47 47,47c25.783,0 47,-21.217 47,-47c0,-0.017 0,-0.033 0,-0.05c0,-25.756 -21.194,-46.95 -46.95,-46.95c-0.017,-0 -0.033,0 -0.05,0Z" style="fill:#a10000;fill-rule:nonzero;"/></g><circle cx="143" cy="47" r="27.3" style="fill:#ca0000;"/><g><path d="M125.1,33.5l4.6,0l0,22.4l13.4,0l0,4l-18,0l0,-26.4Z" style="fill:#fff;fill-rule:nonzero;"/><path d="M151.9,44.8c2.8,0.1 5.7,-0.9 5.7,-4.1c0,-0 0,-0.001 0,-0.001c0,-2.035 -1.675,-3.71 -3.71,-3.71c-0.097,0 -0.194,0.004 -0.29,0.011c-2.9,0 -4.4,2.6 -4.3,5.3l-4.2,0c0.2,-5 3.4,-8.8 8.6,-8.8c4,0 8.2,2.3 8.2,6.9c0,2.6 -1.1,4.7 -3.7,5.5l0,0.1c3,0.6 4.7,3.1 4.7,6.5c0,4.9 -4.3,7.9 -9.2,7.9c-6,0 -9,-3.6 -9.1,-9l4.2,0c-0.1,3.1 1.6,5.5 4.9,5.5c2.8,0 5,-1.7 5,-4.6c0,-4 -3.4,-4.5 -6.8,-4.4l0,-3.1Z" style="fill:#fff;fill-rule:nonzero;"/></g></g><g><g><path d="M239,92.5c-24.961,0 -45.5,-20.539 -45.5,-45.5c0,-24.961 20.539,-45.5 45.5,-45.5c24.961,-0 45.5,20.539 45.5,45.5c-0.022,24.952 -20.548,45.478 -45.5,45.5Z" style="fill:#a10000;fill-rule:nonzero;"/><path d="M239,3c24.138,-0 44,19.862 44,44c0,24.138 -19.862,44 -44,44c-24.138,0 -44,-19.862 -44,-44c0,-24.138 19.862,-44 44,-44m0,-3c-25.783,0 -47,21.217 -47,47c0,25.783 21.217,47 47,47c25.783,0 47,-21.217 47,-47c0,-0.017 0,-0.033 0,-0.05c0,-25.756 -21.194,-46.95 -46.95,-46.95c-0.017,-0 -0.033,0 -0.05,0Z" style="fill:#a10000;fill-rule:nonzero;"/></g><circle cx="239" cy="47" r="27.3" style="fill:#ca0000;"/><g><path d="M218.5,33.5l12.8,0c5.8,0 8.7,2.7 8.7,7.1c0,5.1 -3.5,6.4 -4.4,6.7l0,0.1c1.6,0.2 3.9,1.4 3.9,5.6c0,3.1 0.4,5.9 1.4,7l-5,0c-0.585,-1.211 -0.828,-2.561 -0.7,-3.9c0,-4.8 -1,-7 -5.3,-7l-6.8,0l0,10.9l-4.6,0l0,-26.5Zm4.8,12.1l7.6,0c3,0 4.5,-1.4 4.5,-4.2c0,-3.4 -2.2,-4 -4.6,-4l-7.5,0l0,8.2Z" style="fill:#fff;fill-rule:nonzero;"/><path d="M250.3,44.8c2.8,0.1 5.7,-0.9 5.7,-4.1c0,-0 0,-0.001 0,-0.001c0,-2.035 -1.675,-3.71 -3.71,-3.71c-0.097,0 -0.194,0.004 -0.29,0.011c-2.9,0 -4.4,2.6 -4.3,5.3l-4.2,0c0.2,-5 3.4,-8.8 8.6,-8.8c4,0 8.2,2.3 8.2,6.9c0,2.6 -1.1,4.7 -3.7,5.5l0,0.1c3,0.6 4.7,3.1 4.7,6.5c0,4.9 -4.3,7.9 -9.2,7.9c-6,0 -9,-3.6 -9.1,-9l4.2,0c-0.1,3.1 1.6,5.5 4.9,5.5c2.8,0 5,-1.7 5,-4.6c0,-4 -3.4,-4.5 -6.8,-4.4l0,-3.1Z" style="fill:#fff;fill-rule:nonzero;"/></g></g></g></svg>